<svg version="1.1" id="Layer_1" xmlns="http://www.w3.org/2000/svg" xmlns:xlink="http://www.w3.org/1999/xlink" x="0px" y="0px"
	 width="100%" viewBox="0 0 500 500" enable-background="new 0 0 500 500" xml:space="preserve">
<path fill="#8E6CEF" opacity="1.000000" stroke="none" 
	d="
M242.000000,501.000000 
	C161.333359,501.000000 81.166702,501.000000 1.000043,501.000000 
	C1.000029,334.333405 1.000029,167.666779 1.000014,1.000133 
	C167.666565,1.000088 334.333130,1.000088 500.999756,1.000044 
	C500.999847,167.666519 500.999847,334.333038 500.999939,500.999786 
	C414.833344,501.000000 328.666656,501.000000 242.000000,501.000000 
M310.762207,341.261230 
	C328.999207,327.653717 338.675934,309.578522 337.626892,286.725952 
	C336.402283,260.049713 321.380646,243.379898 296.840424,235.093689 
	C287.029633,231.780975 276.608276,230.276550 266.812714,228.028809 
	C267.733337,227.766083 269.280273,227.335739 270.820740,226.883270 
	C282.115662,223.565781 292.701172,219.082458 301.245361,210.495010 
	C317.453949,194.204437 319.448822,159.924393 291.844208,147.772202 
	C282.718628,143.754913 272.462372,140.675461 262.596741,140.274185 
	C232.483612,139.049408 202.308975,139.335266 172.158081,139.053665 
	C171.687256,139.049255 171.213989,139.304489 169.482208,139.796234 
	C170.755768,141.511780 171.450165,143.313400 172.746643,144.038589 
	C177.508545,146.702118 180.025436,150.794983 181.016785,155.923477 
	C181.830734,160.134323 182.353149,164.401505 182.997620,168.597076 
	C191.725174,168.597076 200.132523,168.597076 209.056030,168.597076 
	C209.056030,160.303131 209.056030,152.381577 209.056030,143.825592 
	C224.643021,144.335999 239.771042,142.379456 254.629486,146.790619 
	C274.781799,152.773438 285.799744,169.481079 283.926697,191.578033 
	C282.293060,210.850403 268.348114,225.105225 248.119568,227.089874 
	C239.088593,227.975906 229.898453,227.239639 221.092514,227.239639 
	C219.457703,231.787491 220.699326,232.921982 224.066208,232.890411 
	C232.063614,232.815445 240.084320,232.590286 248.056870,233.069870 
	C263.098053,233.974670 277.552734,237.274734 289.286224,247.454224 
	C306.214172,262.140198 309.822266,281.784912 308.538269,302.851440 
	C307.890991,313.471313 304.911804,323.516907 298.434753,332.210632 
	C287.103943,347.419250 270.879120,353.314270 252.926727,354.847656 
	C242.228119,355.761475 231.387695,355.015137 220.854202,355.015137 
	C219.453888,359.687805 220.664352,361.048309 224.330215,360.890137 
	C233.977844,360.473755 243.665909,360.642181 253.279404,359.859528 
	C273.601746,358.205017 293.044739,353.465820 310.762207,341.261230 
M190.216705,333.326019 
	C189.287857,332.566376 188.340744,331.827820 187.433258,331.043457 
	C183.281906,327.455292 176.405060,328.531677 175.082047,333.695679 
	C173.612640,339.431152 173.677567,345.559723 173.074142,351.520355 
	C185.537598,351.520355 196.584259,351.520355 207.851303,351.520355 
	C207.851303,346.322876 208.166153,341.501007 207.757462,336.741272 
	C207.392273,332.488129 205.098099,329.132141 200.595932,328.196259 
	C196.269836,327.297028 192.673599,328.467987 190.216705,333.326019 
M186.005234,240.112579 
	C185.742188,238.315628 184.745621,236.165268 185.398758,234.809753 
	C186.245575,233.052261 188.406555,231.927979 190.001801,230.531113 
	C190.850525,231.881500 192.027740,233.132141 192.474838,234.604492 
	C193.240723,237.126816 193.245209,239.896210 194.123398,242.364777 
	C195.394684,245.938293 198.283325,247.401474 202.056259,246.984619 
	C205.981949,246.550888 208.300354,244.065033 208.295853,240.401810 
	C208.291779,237.096832 207.095184,233.793320 206.328049,230.013992 
	C206.528717,229.666016 207.186661,228.525131 207.844574,227.384232 
	C206.526184,226.979874 205.219269,226.278320 203.887253,226.226898 
	C199.896057,226.072861 195.894150,226.118561 191.898056,226.184891 
	C182.878830,226.334579 178.424805,234.453964 183.118210,242.249496 
	C183.520950,242.918442 184.579803,243.192383 185.333878,243.649811 
	C185.621002,242.708984 185.908127,241.768173 186.005234,240.112579 
M207.977310,318.362701 
	C207.624542,314.430664 207.271790,310.498627 206.919037,306.566559 
	C206.562134,306.655792 206.205215,306.744995 205.848312,306.834229 
	C206.514664,305.691193 207.181015,304.548157 207.847366,303.405121 
	C206.535507,302.993835 205.236893,302.287323 203.909271,302.227753 
	C200.253632,302.063782 196.585724,302.151459 192.922897,302.174347 
	C183.067749,302.235962 179.051086,308.163910 182.796722,317.276855 
	C183.197083,318.250885 184.447144,318.875671 185.303024,319.662476 
	C185.560684,318.567596 186.057541,317.465576 186.025208,316.379333 
	C185.961884,314.253174 184.895569,311.861389 185.579544,310.097198 
	C186.181686,308.544128 188.604309,307.696869 190.223007,306.537933 
	C190.988693,307.793243 192.055664,308.961945 192.447235,310.324768 
	C192.992172,312.221252 192.469528,314.603119 193.415039,316.165131 
	C194.935440,318.676910 196.886444,321.586273 199.379700,322.686279 
	C202.581940,324.099060 205.905548,322.578918 207.977310,318.362701 
M185.163269,261.698761 
	C185.945816,257.852264 188.291031,256.694427 191.829330,257.331177 
	C192.602386,261.495300 192.959656,265.325592 194.077621,268.919220 
	C195.254333,272.701630 198.342880,274.360321 202.302017,273.753662 
	C206.108612,273.170410 208.409103,270.604736 208.317825,266.931305 
	C208.236130,263.643890 207.034714,260.384308 206.288925,256.934814 
	C206.727722,256.201660 207.449448,254.995789 208.627838,253.026901 
	C202.190201,253.026901 196.846237,252.611206 191.611542,253.187729 
	C188.623428,253.516830 183.987091,254.841888 183.315887,256.814941 
	C182.046539,260.546173 183.041779,265.071594 183.291229,269.255402 
	C183.313843,269.634460 184.752380,269.929077 185.533386,270.262909 
	C185.775436,269.446899 186.292252,268.599823 186.204163,267.821136 
	C186.000565,266.021088 185.503922,264.254120 185.163269,261.698761 
M204.945190,282.753326 
	C204.945190,285.443817 204.945190,288.134277 204.945190,291.329407 
	C196.546021,287.310333 191.063843,280.376373 182.042923,277.546875 
	C182.674393,284.411743 180.763428,290.284729 183.218628,295.742157 
	C183.781387,295.736206 184.344147,295.730255 184.906921,295.724274 
	C185.194061,291.937012 185.481201,288.149719 185.843765,283.367676 
	C193.273804,288.331909 199.985214,292.816040 206.696640,297.300171 
	C207.140686,296.992676 207.584717,296.685211 208.028763,296.377716 
	C208.028763,291.472870 208.120667,286.565094 207.964554,281.665222 
	C207.925201,280.430328 207.092346,279.220764 206.624161,277.999542 
	C206.064667,279.296539 205.505173,280.593506 204.945190,282.753326 
M205.010147,214.251907 
	C201.514374,214.239319 198.015930,214.309052 194.523422,214.195602 
	C188.693161,214.006195 186.682312,212.084290 185.478683,206.373947 
	C185.240479,205.243866 183.917938,204.342377 183.095428,203.335464 
	C182.460846,203.752396 181.826263,204.169327 181.191681,204.586258 
	C182.310471,207.864700 183.429260,211.143143 184.420609,214.048141 
	C183.719345,215.083862 182.992752,216.156967 182.266159,217.230087 
	C183.082779,217.651962 183.894775,218.429123 184.716782,218.439850 
	C191.706635,218.531204 198.699051,218.528000 205.688339,218.411804 
	C206.438599,218.399338 207.173889,217.486252 207.916122,216.990952 
	C207.240311,216.092361 206.564514,215.193787 205.010147,214.251907 
z"/>
<path fill="#FDFDFF" opacity="1.000000" stroke="none" 
	d="
M310.476257,341.480652 
	C293.044739,353.465820 273.601746,358.205017 253.279404,359.859528 
	C243.665909,360.642181 233.977844,360.473755 224.330215,360.890137 
	C220.664352,361.048309 219.453888,359.687805 220.854202,355.015137 
	C231.387695,355.015137 242.228119,355.761475 252.926727,354.847656 
	C270.879120,353.314270 287.103943,347.419250 298.434753,332.210632 
	C304.911804,323.516907 307.890991,313.471313 308.538269,302.851440 
	C309.822266,281.784912 306.214172,262.140198 289.286224,247.454224 
	C277.552734,237.274734 263.098053,233.974670 248.056870,233.069870 
	C240.084320,232.590286 232.063614,232.815445 224.066208,232.890411 
	C220.699326,232.921982 219.457703,231.787491 221.092514,227.239639 
	C229.898453,227.239639 239.088593,227.975906 248.119568,227.089874 
	C268.348114,225.105225 282.293060,210.850403 283.926697,191.578033 
	C285.799744,169.481079 274.781799,152.773438 254.629486,146.790619 
	C239.771042,142.379456 224.643021,144.335999 209.056030,143.825592 
	C209.056030,152.381577 209.056030,160.303131 209.056030,168.597076 
	C200.132523,168.597076 191.725174,168.597076 182.997620,168.597076 
	C182.353149,164.401505 181.830734,160.134323 181.016785,155.923477 
	C180.025436,150.794983 177.508545,146.702118 172.746643,144.038589 
	C171.450165,143.313400 170.755768,141.511780 169.482208,139.796234 
	C171.213989,139.304489 171.687256,139.049255 172.158081,139.053665 
	C202.308975,139.335266 232.483612,139.049408 262.596741,140.274185 
	C272.462372,140.675461 282.718628,143.754913 291.844208,147.772202 
	C319.448822,159.924393 317.453949,194.204437 301.245361,210.495010 
	C292.701172,219.082458 282.115662,223.565781 270.820740,226.883270 
	C269.280273,227.335739 267.733337,227.766083 266.812714,228.028809 
	C276.608276,230.276550 287.029633,231.780975 296.840424,235.093689 
	C321.380646,243.379898 336.402283,260.049713 337.626892,286.725952 
	C338.675934,309.578522 328.999207,327.653717 310.476257,341.480652 
z"/>
<path fill="#F8F6FE" opacity="1.000000" stroke="none" 
	d="
M190.452362,333.076416 
	C192.673599,328.467987 196.269836,327.297028 200.595932,328.196259 
	C205.098099,329.132141 207.392273,332.488129 207.757462,336.741272 
	C208.166153,341.501007 207.851303,346.322876 207.851303,351.520355 
	C196.584259,351.520355 185.537598,351.520355 173.074142,351.520355 
	C173.677567,345.559723 173.612640,339.431152 175.082047,333.695679 
	C176.405060,328.531677 183.281906,327.455292 187.433258,331.043457 
	C188.340744,331.827820 189.287857,332.566376 190.452362,333.076416 
M192.016556,338.104034 
	C192.016556,341.188477 192.016556,344.272919 192.016556,347.257416 
	C206.766037,348.727783 204.759048,347.987793 204.335358,338.782135 
	C204.183167,335.475922 202.685089,332.958984 199.127090,332.432404 
	C195.389755,331.879303 193.094376,333.659363 192.016556,338.104034 
M185.236511,347.792084 
	C191.163483,345.831085 187.676392,341.114532 187.619583,337.829498 
	C187.593323,336.310638 184.333694,334.156708 182.212860,333.644104 
	C181.078873,333.369995 178.362335,335.727386 177.921890,337.327209 
	C177.045898,340.509186 177.249771,343.988464 176.974030,347.808350 
	C180.066269,347.808350 182.198441,347.808350 185.236511,347.792084 
z"/>
<path fill="#F6F3FE" opacity="1.000000" stroke="none" 
	d="
M186.100250,240.469971 
	C185.908127,241.768173 185.621002,242.708984 185.333878,243.649811 
	C184.579803,243.192383 183.520950,242.918442 183.118210,242.249496 
	C178.424805,234.453964 182.878830,226.334579 191.898056,226.184891 
	C195.894150,226.118561 199.896057,226.072861 203.887253,226.226898 
	C205.219269,226.278320 206.526184,226.979874 207.844574,227.384247 
	C207.186661,228.525131 206.528717,229.666016 206.328049,230.013992 
	C207.095184,233.793320 208.291779,237.096832 208.295853,240.401810 
	C208.300354,244.065033 205.981949,246.550888 202.056259,246.984619 
	C198.283325,247.401474 195.394684,245.938293 194.123398,242.364777 
	C193.245209,239.896210 193.240723,237.126816 192.474838,234.604492 
	C192.027740,233.132141 190.850525,231.881500 190.001801,230.531097 
	C188.406555,231.927979 186.245575,233.052261 185.398758,234.809753 
	C184.745621,236.165268 185.742188,238.315628 186.100250,240.469971 
M204.436020,234.444305 
	C202.677856,230.953156 199.752808,230.106232 195.332153,230.701096 
	C195.793701,233.910660 195.790466,237.107956 196.853455,239.899200 
	C197.372086,241.261093 199.993256,242.745850 201.451355,242.555542 
	C202.794601,242.380219 204.104355,240.169312 204.940567,238.595612 
	C205.398117,237.734512 204.844559,236.336151 204.436020,234.444305 
z"/>
<path fill="#F6F3FE" opacity="1.000000" stroke="none" 
	d="
M207.842010,318.723694 
	C205.905548,322.578918 202.581940,324.099060 199.379700,322.686279 
	C196.886444,321.586273 194.935440,318.676910 193.415039,316.165131 
	C192.469528,314.603119 192.992172,312.221252 192.447235,310.324768 
	C192.055664,308.961945 190.988693,307.793243 190.223007,306.537933 
	C188.604309,307.696869 186.181686,308.544128 185.579544,310.097198 
	C184.895569,311.861389 185.961884,314.253174 186.025208,316.379333 
	C186.057541,317.465576 185.560684,318.567596 185.303024,319.662476 
	C184.447144,318.875671 183.197083,318.250885 182.796722,317.276855 
	C179.051086,308.163910 183.067749,302.235962 192.922897,302.174347 
	C196.585724,302.151459 200.253632,302.063782 203.909271,302.227753 
	C205.236893,302.287323 206.535507,302.993835 207.847366,303.405121 
	C207.181015,304.548157 206.514664,305.691193 205.848312,306.834229 
	C206.205215,306.744995 206.562134,306.655792 206.919037,306.566559 
	C207.271790,310.498627 207.624542,314.430664 207.842010,318.723694 
M199.867233,318.724213 
	C204.388138,319.170929 205.325226,316.422272 205.002960,312.777924 
	C204.599899,308.219879 201.602127,306.285828 195.715515,306.892426 
	C195.902390,311.038147 194.598190,315.513184 199.867233,318.724213 
z"/>
<path fill="#F8F6FE" opacity="1.000000" stroke="none" 
	d="
M185.144684,262.086243 
	C185.503922,264.254120 186.000565,266.021088 186.204163,267.821136 
	C186.292252,268.599823 185.775436,269.446899 185.533386,270.262909 
	C184.752380,269.929077 183.313843,269.634460 183.291229,269.255402 
	C183.041779,265.071594 182.046539,260.546173 183.315887,256.814941 
	C183.987091,254.841888 188.623428,253.516830 191.611542,253.187729 
	C196.846237,252.611206 202.190201,253.026901 208.627838,253.026901 
	C207.449448,254.995789 206.727722,256.201660 206.288925,256.934814 
	C207.034714,260.384308 208.236130,263.643890 208.317825,266.931305 
	C208.409103,270.604736 206.108612,273.170410 202.302017,273.753662 
	C198.342880,274.360321 195.254333,272.701630 194.077621,268.919220 
	C192.959656,265.325592 192.602386,261.495300 191.829330,257.331177 
	C188.291031,256.694427 185.945816,257.852264 185.144684,262.086243 
M204.833359,266.837799 
	C205.307297,259.317902 202.224564,256.266174 195.440613,257.937653 
	C195.628159,260.161194 195.628586,262.475311 196.051529,264.709473 
	C196.990616,269.669861 200.294785,270.726685 204.833359,266.837799 
z"/>
<path fill="#F8F6FE" opacity="1.000000" stroke="none" 
	d="
M204.945435,282.321899 
	C205.505173,280.593506 206.064667,279.296539 206.624146,277.999542 
	C207.092346,279.220764 207.925201,280.430328 207.964554,281.665222 
	C208.120667,286.565094 208.028763,291.472870 208.028763,296.377716 
	C207.584717,296.685211 207.140686,296.992676 206.696640,297.300171 
	C199.985214,292.816040 193.273804,288.331909 185.843765,283.367676 
	C185.481201,288.149719 185.194061,291.937012 184.906921,295.724274 
	C184.344147,295.730255 183.781387,295.736206 183.218628,295.742157 
	C180.763428,290.284729 182.674393,284.411743 182.042923,277.546875 
	C191.063843,280.376373 196.546021,287.310333 204.945190,291.329407 
	C204.945190,288.134277 204.945190,285.443817 204.945435,282.321899 
z"/>
<path fill="#F6F4FE" opacity="1.000000" stroke="none" 
	d="
M205.449432,214.273560 
	C206.564514,215.193787 207.240311,216.092361 207.916107,216.990936 
	C207.173889,217.486252 206.438599,218.399338 205.688339,218.411804 
	C198.699051,218.528000 191.706635,218.531204 184.716782,218.439850 
	C183.894775,218.429123 183.082779,217.651962 182.266159,217.230087 
	C182.992752,216.156967 183.719345,215.083862 184.420609,214.048141 
	C183.429260,211.143143 182.310471,207.864700 181.191681,204.586258 
	C181.826263,204.169327 182.460846,203.752396 183.095428,203.335464 
	C183.917938,204.342377 185.240479,205.243866 185.478683,206.373947 
	C186.682312,212.084290 188.693161,214.006195 194.523422,214.195602 
	C198.015930,214.309052 201.514374,214.239319 205.449432,214.273560 
z"/>
<path fill="#9474F0" opacity="1.000000" stroke="none" 
	d="
M192.081207,337.683441 
	C193.094376,333.659363 195.389755,331.879303 199.127090,332.432404 
	C202.685089,332.958984 204.183167,335.475922 204.335358,338.782135 
	C204.759048,347.987793 206.766037,348.727783 192.016556,347.257416 
	C192.016556,344.272919 192.016556,341.188477 192.081207,337.683441 
z"/>
<path fill="#9373F0" opacity="1.000000" stroke="none" 
	d="
M184.783569,347.800232 
	C182.198441,347.808350 180.066269,347.808350 176.974030,347.808350 
	C177.249771,343.988464 177.045898,340.509186 177.921890,337.327209 
	C178.362335,335.727386 181.078873,333.369995 182.212860,333.644104 
	C184.333694,334.156708 187.593323,336.310638 187.619583,337.829498 
	C187.676392,341.114532 191.163483,345.831085 184.783569,347.800232 
z"/>
<path fill="#9474F0" opacity="1.000000" stroke="none" 
	d="
M204.591492,234.812180 
	C204.844559,236.336151 205.398117,237.734512 204.940567,238.595612 
	C204.104355,240.169312 202.794601,242.380219 201.451355,242.555542 
	C199.993256,242.745850 197.372086,241.261093 196.853455,239.899200 
	C195.790466,237.107956 195.793701,233.910660 195.332153,230.701096 
	C199.752808,230.106232 202.677856,230.953156 204.591492,234.812180 
z"/>
<path fill="#9474F0" opacity="1.000000" stroke="none" 
	d="
M199.501358,318.592072 
	C194.598190,315.513184 195.902390,311.038147 195.715515,306.892426 
	C201.602127,306.285828 204.599899,308.219879 205.002960,312.777924 
	C205.325226,316.422272 204.388138,319.170929 199.501358,318.592072 
z"/>
<path fill="#9373F0" opacity="1.000000" stroke="none" 
	d="
M204.678879,267.196777 
	C200.294785,270.726685 196.990616,269.669861 196.051529,264.709473 
	C195.628586,262.475311 195.628159,260.161194 195.440613,257.937653 
	C202.224564,256.266174 205.307297,259.317902 204.678879,267.196777 
z"/>
</svg>